<mxfile host="app.diagrams.net" modified="2023-06-14T17:13:18.133Z" agent="Mozilla/5.0 (Windows NT 10.0; Win64; x64) AppleWebKit/537.36 (KHTML, like Gecko) Chrome/114.0.0.0 Safari/537.36" version="21.3.8" etag="7WXexEpWQHU-TTj1A-_w" type="github">
  <diagram name="第 1 页" id="C7srfCv7XR_dHgOFk2TQ">
    <mxGraphModel>
      <root>
        <mxCell id="0" />
        <mxCell id="1" parent="0" />
      </root>
    </mxGraphModel>
  </diagram>
</mxfile>
